<svg xmlns="http://www.w3.org/2000/svg" width="70" height="70" viewBox="0 0 70 70" fill="none">
  <g clip-path="url(#clip0_68_1113)">
    <path d="M35.0002 0.593018C54.0025 0.593018 69.407 15.9975 69.407 34.9998C69.407 54.0021 54.0025 69.4066 35.0002 69.4066C15.9979 69.4066 0.593422 54.0021 0.593422 34.9998C0.593422 15.9975 15.9979 0.593018 35.0002 0.593018ZM35.0002 1.77946C16.6531 1.77946 1.77986 16.6527 1.77986 34.9998C1.77986 53.3469 16.6531 68.2201 35.0002 68.2201C53.3473 68.2201 68.2205 53.3469 68.2205 34.9998C68.2205 16.6527 53.3473 1.77946 35.0002 1.77946Z" fill="url(#paint0_linear_68_1113)"/>
    <path fill-rule="evenodd" clip-rule="evenodd" d="M23.1001 34.8206L32.212 25.2667C32.6369 24.832 33.3265 24.7815 33.8225 25.2228C34.2652 25.6157 34.2764 26.3841 33.867 26.8121L26.5525 34.4694H45.1323C45.7618 34.4694 46.2712 34.9721 46.2712 35.5934C46.2712 36.2146 45.7618 36.7174 45.1323 36.7174H26.5525L33.867 44.3746C34.2764 44.8027 34.2474 45.5513 33.8225 45.964C33.3732 46.3987 32.6301 46.3613 32.212 45.9201L23.1001 36.3661C22.8331 36.1071 22.7842 35.8568 22.7797 35.5934C22.7797 35.3343 22.9399 34.9875 23.1001 34.8206Z" fill="url(#paint1_linear_68_1113)"/>
  </g>
  <defs>
    <linearGradient id="paint0_linear_68_1113" x1="35.0002" y1="0.593018" x2="35.0002" y2="69.4066" gradientUnits="userSpaceOnUse">
      <stop stop-color="#003094"/>
      <stop offset="1" stop-color="#1779EA"/>
    </linearGradient>
    <linearGradient id="paint1_linear_68_1113" x1="34.5255" y1="24.9153" x2="34.5255" y2="46.2712" gradientUnits="userSpaceOnUse">
      <stop stop-color="#003094"/>
      <stop offset="1" stop-color="#1779EA"/>
    </linearGradient>
    <clipPath id="clip0_68_1113">
      <rect width="70" height="70" fill="white"/>
    </clipPath>
  </defs>
</svg>