<svg xmlns="http://www.w3.org/2000/svg" width="208" height="206" viewBox="0 0 208 206" fill="none">
  <g filter="url(#filter0_d_4_132)">
    <path d="M79.3745 108.843H62.3581C59.8462 108.851 57.3578 108.36 55.0371 107.399C52.7164 106.437 50.6098 105.025 48.8393 103.243L15.9978 70.4014C15.8131 72.5802 15.6666 74.7654 15.6666 76.9888C15.6945 96.1476 22.9098 114.599 35.8858 128.694C48.8619 142.79 66.6542 151.504 85.7453 153.113V115.214C85.7453 113.524 85.0741 111.903 83.8793 110.709C82.6846 109.514 81.0642 108.843 79.3745 108.843Z" fill="url(#paint0_linear_4_132)"/>
    <path d="M145.86 22.6973L134.457 34.101C131.465 37.0767 127.42 38.7524 123.2 38.7644H114.414C113.569 38.7644 112.759 39.1 112.162 39.6974C111.564 40.2948 111.229 41.105 111.229 41.9498V48.3206C111.229 52.5447 109.551 56.5958 106.564 59.5827C103.577 62.5696 99.526 64.2476 95.3019 64.2476C94.457 64.2476 93.6468 64.5832 93.0494 65.1806C92.4521 65.778 92.1165 66.5882 92.1165 67.433V70.6184C92.1165 72.308 92.7877 73.9285 93.9824 75.1232C95.1772 76.318 96.7976 76.9892 98.4873 76.9892H117.6C122.669 76.9892 127.53 79.0028 131.114 82.5871C134.698 86.1713 136.712 91.0327 136.712 96.1016V102.23C136.712 103.073 137.047 103.882 137.642 104.479L154.365 121.209C164.908 106.465 169.844 88.4426 168.284 70.3842C166.725 52.3259 158.774 35.4164 145.86 22.6973Z" fill="url(#paint1_linear_4_132)"/>
    <path d="M123.97 102.236V96.1069C123.97 94.4173 123.299 92.7968 122.104 91.6021C120.91 90.4073 119.289 89.7361 117.6 89.7361H98.4871C93.4182 89.7361 88.5569 87.7225 84.9726 84.1382C81.3884 80.554 79.3747 75.6926 79.3747 70.6237V67.4383C79.3747 63.2142 81.0527 59.1631 84.0396 56.1762C87.0265 53.1894 91.0776 51.5113 95.3017 51.5113C96.1465 51.5113 96.9568 51.1757 97.5541 50.5784C98.1515 49.981 98.4871 49.1708 98.4871 48.3259V41.9551C98.4871 37.731 100.165 33.68 103.152 30.6931C106.139 27.7062 110.19 26.0282 114.414 26.0282H123.199C124.042 26.0232 124.849 25.6894 125.448 25.098L136.03 14.5161C126.123 7.51889 114.69 2.98483 102.681 1.2901C90.6706 -0.404637 78.4297 0.78881 66.9732 4.77143C55.5168 8.75405 45.1752 15.411 36.8063 24.1901C28.4374 32.9692 22.2825 43.6173 18.8522 55.251L57.8414 94.2403C58.4344 94.8334 59.1386 95.3036 59.9138 95.624C60.6889 95.9443 61.5196 96.1084 62.3583 96.1069H79.3747C84.4436 96.1069 89.305 98.1205 92.8892 101.705C96.4735 105.289 98.4871 110.15 98.4871 115.219V153.119C116.496 151.637 133.391 143.804 146.16 131.019L128.634 113.493C125.658 110.501 123.982 106.456 123.97 102.236Z" fill="url(#paint2_linear_4_132)"/>
  </g>
  <defs>
    <filter id="filter0_d_4_132" x="0.976263" y="0.541748" width="206.265" height="206.242" filterUnits="userSpaceOnUse" color-interpolation-filters="sRGB">
      <feFlood flood-opacity="0" result="BackgroundImageFix"/>
      <feColorMatrix in="SourceAlpha" type="matrix" values="0 0 0 0 0 0 0 0 0 0 0 0 0 0 0 0 0 0 127 0" result="hardAlpha"/>
      <feOffset dx="11.9921" dy="26.9822"/>
      <feGaussianBlur stdDeviation="13.3412"/>
      <feComposite in2="hardAlpha" operator="out"/>
      <feColorMatrix type="matrix" values="0 0 0 0 0 0 0 0 0 0 0 0 0 0 0 0 0 0 0.5 0"/>
      <feBlend mode="normal" in2="BackgroundImageFix" result="effect1_dropShadow_4_132"/>
      <feBlend mode="normal" in="SourceGraphic" in2="effect1_dropShadow_4_132" result="shape"/>
    </filter>
    <linearGradient id="paint0_linear_4_132" x1="50.7059" y1="70.4014" x2="50.7059" y2="153.113" gradientUnits="userSpaceOnUse">
      <stop stop-color="#003094"/>
      <stop offset="1" stop-color="#1779EA"/>
    </linearGradient>
    <linearGradient id="paint1_linear_4_132" x1="130.342" y1="22.6973" x2="130.342" y2="121.209" gradientUnits="userSpaceOnUse">
      <stop stop-color="#003094"/>
      <stop offset="1" stop-color="#1779EA"/>
    </linearGradient>
    <linearGradient id="paint2_linear_4_132" x1="82.506" y1="0.541748" x2="82.506" y2="153.119" gradientUnits="userSpaceOnUse">
      <stop stop-color="#003094"/>
      <stop offset="1" stop-color="#1779EA"/>
    </linearGradient>
  </defs>
</svg>