<svg width="51" height="51" viewBox="0 0 51 51" fill="none" xmlns="http://www.w3.org/2000/svg">
<path d="M41.45 16.3912H35.1932V11.6986C35.1932 9.20952 34.2044 6.82237 32.4444 5.06232C30.6843 3.30226 28.2972 2.31348 25.8081 2.31348C23.319 2.31348 20.9318 3.30226 19.1718 5.06232C17.4117 6.82237 16.4229 9.20952 16.4229 11.6986V16.3912H10.1662C9.33649 16.3912 8.54078 16.7208 7.95409 17.3075C7.36741 17.8941 7.03781 18.6899 7.03781 19.5196V41.4182C7.03781 42.2479 7.36741 43.0436 7.95409 43.6303C8.54078 44.217 9.33649 44.5466 10.1662 44.5466H41.45C42.2797 44.5466 43.0754 44.217 43.6621 43.6303C44.2488 43.0436 44.5784 42.2479 44.5784 41.4182V19.5196C44.5784 18.6899 44.2488 17.8941 43.6621 17.3075C43.0754 16.7208 42.2797 16.3912 41.45 16.3912ZM19.5513 11.6986C19.5513 10.0392 20.2105 8.44779 21.3839 7.27442C22.5573 6.10105 24.1487 5.44185 25.8081 5.44185C27.4675 5.44185 29.0589 6.10105 30.2323 7.27442C31.4056 8.44779 32.0648 10.0392 32.0648 11.6986V16.3912H19.5513V11.6986Z" fill="#CCE3FF"/>
</svg>
