<svg width="59" height="50" viewBox="0 0 59 50" fill="none" xmlns="http://www.w3.org/2000/svg">
<path d="M4.54587 38.617V47.9525C4.54587 48.5202 5.00667 48.9946 5.58678 48.9946H12.806C13.0822 48.9943 13.3469 48.8843 13.5421 48.6889C13.7373 48.4935 13.8469 48.2286 13.8469 47.9525V31.529L8.60392 36.7713C7.51788 37.8562 6.07606 38.5118 4.54449 38.617H4.54587ZM17.4442 31.4111V47.9525C17.4442 48.5202 17.905 48.9946 18.4851 48.9946H25.7043C25.9805 48.9943 26.2452 48.8843 26.4404 48.6889C26.6356 48.4935 26.7452 48.2286 26.7452 47.9525V38.2152C25.1127 38.1867 23.5553 37.5249 22.4019 36.3695L17.4442 31.4111ZM30.3424 37.1854V47.9525C30.3424 48.5202 30.8046 48.9946 31.3847 48.9946H38.6026C38.879 48.9946 39.1441 48.8848 39.3396 48.6894C39.535 48.4939 39.6448 48.2289 39.6448 47.9525V28.0858L31.3724 36.3572C31.06 36.6691 30.7138 36.9468 30.3424 37.1854ZM51.8451 15.8762L43.2421 24.4781V47.9538C43.2428 48.2298 43.353 48.4941 43.5483 48.689C43.7437 48.8838 44.0084 48.9933 44.2844 48.9933H51.5022C51.7784 48.9933 52.0433 48.8836 52.2387 48.6885C52.4342 48.4934 52.5441 48.2286 52.5445 47.9525V16.5262C52.3072 16.3246 52.129 16.1478 51.9987 16.0298L51.8451 15.8749V15.8762Z" fill="white"/>
<path d="M57.7506 0.636561C57.4077 0.269066 56.8866 0.079834 56.2228 0.079834H56.0335C52.6735 0.233414 49.3245 0.399335 45.9631 0.552915C45.5133 0.576226 44.8989 0.600908 44.4134 1.08496C44.258 1.24187 44.1333 1.42652 44.0459 1.62934C43.5494 2.70715 44.2475 3.40511 44.5794 3.73558L45.4187 4.5885C45.9988 5.17951 46.5912 5.77051 47.1823 6.35055L26.8756 26.6683L17.7515 17.5454C17.482 17.2755 17.162 17.0614 16.8098 16.9153C16.4575 16.7692 16.0798 16.694 15.6984 16.694C15.317 16.694 14.9394 16.7692 14.5871 16.9153C14.2348 17.0614 13.9148 17.2755 13.6454 17.5454L1.49181 29.6851C1.22149 29.9544 1.00701 30.2744 0.860661 30.6268C0.714312 30.9792 0.638977 31.357 0.638977 31.7385C0.638977 32.1201 0.714312 32.4979 0.860661 32.8503C1.00701 33.2026 1.22149 33.5227 1.49181 33.792L2.03627 34.335C2.30568 34.6049 2.62569 34.819 2.97798 34.9651C3.33026 35.1112 3.70791 35.1864 4.0893 35.1864C4.47068 35.1864 4.84833 35.1112 5.20061 34.9651C5.5529 34.819 5.87291 34.6049 6.14232 34.335L15.693 24.787L24.8171 33.9099C25.3615 34.4543 26.0939 34.7614 26.8756 34.7614C27.6478 34.761 28.3884 34.4548 28.9355 33.9099L51.8452 11.0005L54.4372 13.5798C54.7444 13.8883 55.1709 14.3134 55.8223 14.3134C56.0939 14.3134 56.3654 14.2435 56.6493 14.0885C56.8386 13.9829 57.0045 13.865 57.1458 13.7224C57.6559 13.2136 57.7492 12.5623 57.7739 12.0536C57.8685 9.8774 57.9755 7.69986 58.0811 5.51135L58.2347 2.23406C58.2703 1.54707 58.1167 1.01365 57.7506 0.636561Z" fill="url(#paint0_linear_1_683)"/>
<defs>
<linearGradient id="paint0_linear_1_683" x1="29.4393" y1="0.079834" x2="29.4393" y2="35.1864" gradientUnits="userSpaceOnUse">
<stop stop-color="#003094"/>
<stop offset="1" stop-color="#1779EA"/>
</linearGradient>
</defs>
</svg>
