<svg width="59" height="52" viewBox="0 0 59 52" fill="none" xmlns="http://www.w3.org/2000/svg">
<path fill-rule="evenodd" clip-rule="evenodd" d="M58.1899 15.64H45.9931C40.3195 15.6501 35.7202 20.1328 35.7115 25.6668C35.7029 31.2136 40.3051 35.7165 45.9931 35.7237H58.2V36.605C58.2 46.2789 52.3349 51.9986 42.4104 51.9986H16.3925C6.46513 52 0.600006 46.2804 0.600006 36.6064V15.5335C0.600006 5.85811 6.46513 0.160034 16.3925 0.160034H42.3989C52.3248 0.160034 58.1899 5.85811 58.1899 15.5335V15.64ZM14.2498 15.6184H30.5232C31.74 15.6127 32.7221 14.6464 32.7178 13.4584C32.712 12.2733 31.7198 11.3143 30.503 11.32H14.2512C13.043 11.3244 12.0624 12.2805 12.0581 13.4613C12.0523 14.6464 13.0344 15.6127 14.2498 15.6184Z" fill="white"/>
<path d="M41.028 26.934C41.6299 29.6729 44.0319 31.5996 46.7736 31.5506H56.1336C57.2741 31.5506 58.2 30.606 58.2 29.4382V22.1474C58.1971 20.981 57.2741 20.035 56.1336 20.0306H46.5533C43.4343 20.0422 40.9157 22.6313 40.92 25.8209C40.92 26.1953 40.9575 26.5682 41.028 26.934Z" fill="#003094"/>
</svg>
