<svg xmlns="http://www.w3.org/2000/svg" width="106" height="110" viewBox="0 0 106 110" fill="none">
  <mask id="path-1-inside-1_4_143" fill="white">
    <path d="M109.271 54.8546C109.271 84.8383 84.9645 109.145 54.9807 109.145C24.997 109.145 0.690369 84.8383 0.690369 54.8546C0.690369 24.8708 24.997 0.564209 54.9807 0.564209C84.9645 0.564209 109.271 24.8708 109.271 54.8546Z"/>
  </mask>
  <g clip-path="url(#paint0_diamond_4_143_clip_path)" data-figma-skip-parse="true" mask="url(#path-1-inside-1_4_143)"><g transform="matrix(0.03885 0.0742134 -0.0742134 0.03885 16.1307 34.9315)"><rect x="0" y="0" width="1332.69" height="1207.46" fill="url(#paint0_diamond_4_143)" opacity="1" shape-rendering="crispEdges"/><rect x="0" y="0" width="1332.69" height="1207.46" transform="scale(1 -1)" fill="url(#paint0_diamond_4_143)" opacity="1" shape-rendering="crispEdges"/><rect x="0" y="0" width="1332.69" height="1207.46" transform="scale(-1 1)" fill="url(#paint0_diamond_4_143)" opacity="1" shape-rendering="crispEdges"/><rect x="0" y="0" width="1332.69" height="1207.46" transform="scale(-1)" fill="url(#paint0_diamond_4_143)" opacity="1" shape-rendering="crispEdges"/></g></g><path d="M107.279 54.8546C107.279 83.738 83.8641 107.153 54.9807 107.153V111.137C86.0648 111.137 111.263 85.9386 111.263 54.8546H107.279ZM54.9807 107.153C26.0973 107.153 2.68268 83.738 2.68268 54.8546H-1.30194C-1.30194 85.9386 23.8967 111.137 54.9807 111.137V107.153ZM2.68268 54.8546C2.68268 25.9711 26.0973 2.55652 54.9807 2.55652V-1.4281C23.8967 -1.4281 -1.30194 23.7705 -1.30194 54.8546H2.68268ZM54.9807 2.55652C83.8641 2.55652 107.279 25.9711 107.279 54.8546H111.263C111.263 23.7705 86.0648 -1.4281 54.9807 -1.4281V2.55652Z" data-figma-gradient-fill="{&quot;type&quot;:&quot;GRADIENT_DIAMOND&quot;,&quot;stops&quot;:[{&quot;color&quot;:{&quot;r&quot;:0.51249998807907104,&quot;g&quot;:0.76304781436920166,&quot;b&quot;:1.0,&quot;a&quot;:1.0},&quot;position&quot;:0.0},{&quot;color&quot;:{&quot;r&quot;:0.017500000074505806,&quot;g&quot;:0.31687253713607788,&quot;b&quot;:0.60000002384185791,&quot;a&quot;:1.0},&quot;position&quot;:1.0}],&quot;stopsVar&quot;:[{&quot;color&quot;:{&quot;r&quot;:0.51249998807907104,&quot;g&quot;:0.76304781436920166,&quot;b&quot;:1.0,&quot;a&quot;:1.0},&quot;position&quot;:0.0},{&quot;color&quot;:{&quot;r&quot;:0.017500000074505806,&quot;g&quot;:0.31687253713607788,&quot;b&quot;:0.60000002384185791,&quot;a&quot;:1.0},&quot;position&quot;:1.0}],&quot;transform&quot;:{&quot;m00&quot;:77.6999511718750,&quot;m01&quot;:-148.42683410644531,&quot;m02&quot;:51.494182586669922,&quot;m10&quot;:148.42683410644531,&quot;m11&quot;:77.6999511718750,&quot;m12&quot;:-78.131896972656250},&quot;opacity&quot;:1.0,&quot;blendMode&quot;:&quot;NORMAL&quot;,&quot;visible&quot;:true}" mask="url(#path-1-inside-1_4_143)"/>
  <defs>
    <clipPath id="paint0_diamond_4_143_clip_path"><path d="M107.279 54.8546C107.279 83.738 83.8641 107.153 54.9807 107.153V111.137C86.0648 111.137 111.263 85.9386 111.263 54.8546H107.279ZM54.9807 107.153C26.0973 107.153 2.68268 83.738 2.68268 54.8546H-1.30194C-1.30194 85.9386 23.8967 111.137 54.9807 111.137V107.153ZM2.68268 54.8546C2.68268 25.9711 26.0973 2.55652 54.9807 2.55652V-1.4281C23.8967 -1.4281 -1.30194 23.7705 -1.30194 54.8546H2.68268ZM54.9807 2.55652C83.8641 2.55652 107.279 25.9711 107.279 54.8546H111.263C111.263 23.7705 86.0648 -1.4281 54.9807 -1.4281V2.55652Z" mask="url(#path-1-inside-1_4_143)"/></clipPath><linearGradient id="paint0_diamond_4_143" x1="0" y1="0" x2="500" y2="500" gradientUnits="userSpaceOnUse">
      <stop stop-color="#83C3FF"/>
      <stop offset="1" stop-color="#045199"/>
    </linearGradient>
  </defs>
</svg>