<svg width="51" height="51" viewBox="0 0 51 51" fill="none" xmlns="http://www.w3.org/2000/svg">
<path d="M43.0142 25.6624C43.022 25.3809 43.022 25.0993 43.0142 24.8178L45.9314 21.1732C46.0844 20.9818 46.1902 20.7572 46.2405 20.5175C46.2908 20.2777 46.284 20.0295 46.2208 19.7928C45.7417 17.9954 45.0264 16.2696 44.0935 14.6603C43.9712 14.4498 43.8015 14.2707 43.5979 14.1373C43.3942 14.0039 43.1622 13.9198 42.9203 13.8919L38.2825 13.3757C38.0896 13.1724 37.8941 12.9768 37.6959 12.7891L37.1485 8.13958C37.1203 7.89755 37.036 7.66544 36.9023 7.46176C36.7685 7.25808 36.589 7.08847 36.3781 6.96644C34.769 6.03428 33.043 5.32022 31.2456 4.84305C31.0089 4.77982 30.7607 4.77306 30.521 4.82333C30.2812 4.87359 30.0566 4.97947 29.8652 5.13243L26.2304 8.034C25.9489 8.034 25.6673 8.034 25.3858 8.034L21.7412 5.12265C21.5499 4.96969 21.3252 4.86381 21.0855 4.81355C20.8457 4.76329 20.5975 4.77004 20.3608 4.83328C18.5635 5.31236 16.8376 6.0277 15.2283 6.96057C15.0178 7.08283 14.8387 7.25254 14.7053 7.4562C14.5719 7.65987 14.4879 7.89186 14.4599 8.13372L13.9437 12.7794C13.7404 12.9736 13.5449 13.1691 13.3572 13.3659L8.70761 13.8997C8.46557 13.9279 8.23346 14.0122 8.02978 14.1459C7.82611 14.2797 7.65649 14.4592 7.53446 14.6701C6.60249 16.2796 5.88783 18.0054 5.40912 19.8026C5.34616 20.0394 5.33972 20.2877 5.39032 20.5275C5.44092 20.7673 5.54716 20.9918 5.70045 21.183L8.60202 24.8178C8.60202 25.0993 8.60202 25.3809 8.60202 25.6624L5.69068 29.307C5.53771 29.4983 5.43184 29.7229 5.38157 29.9627C5.33131 30.2025 5.33807 30.4507 5.4013 30.6874C5.88039 32.4847 6.59572 34.2106 7.5286 35.8199C7.65085 36.0304 7.82056 36.2095 8.02423 36.3429C8.22789 36.4763 8.45988 36.5603 8.70174 36.5883L13.3396 37.1045C13.5338 37.3078 13.7293 37.5033 13.9261 37.691L14.4677 42.3406C14.4959 42.5826 14.5802 42.8147 14.714 43.0184C14.8477 43.2221 15.0272 43.3917 15.2381 43.5137C16.8476 44.4457 18.5734 45.1604 20.3706 45.6391C20.6074 45.702 20.8557 45.7085 21.0955 45.6579C21.3353 45.6073 21.5598 45.501 21.751 45.3477L25.3858 42.4462C25.6673 42.454 25.9489 42.454 26.2304 42.4462L29.875 45.3634C30.0664 45.5163 30.291 45.6222 30.5307 45.6725C30.7705 45.7227 31.0187 45.716 31.2554 45.6528C33.053 45.1745 34.779 44.4591 36.3879 43.5255C36.5984 43.4032 36.7775 43.2335 36.9109 43.0298C37.0443 42.8262 37.1284 42.5942 37.1563 42.3523L37.6725 37.7145C37.8758 37.5216 38.0714 37.3261 38.2591 37.1279L42.9086 36.5805C43.1506 36.5523 43.3828 36.468 43.5864 36.3342C43.7901 36.2005 43.9597 36.021 44.0818 35.8101C45.0137 34.2006 45.7284 32.4748 46.2071 30.6776C46.2701 30.4408 46.2765 30.1925 46.2259 29.9527C46.1753 29.7129 46.0691 29.4884 45.9158 29.2972L43.0142 25.6624ZM25.8081 33.061C24.2613 33.061 22.7492 32.6023 21.463 31.743C20.1769 30.8836 19.1744 29.6621 18.5825 28.233C17.9905 26.8039 17.8357 25.2314 18.1374 23.7143C18.4392 22.1972 19.1841 20.8036 20.2779 19.7098C21.3716 18.6161 22.7652 17.8712 24.2823 17.5694C25.7994 17.2676 27.372 17.4225 28.8011 18.0145C30.2301 18.6064 31.4516 19.6088 32.311 20.895C33.1704 22.1811 33.6291 23.6932 33.6291 25.2401C33.6291 27.3143 32.8051 29.3036 31.3384 30.7703C29.8716 32.237 27.8824 33.061 25.8081 33.061Z" fill="#CCE3FF"/>
</svg>
