<svg xmlns="http://www.w3.org/2000/svg" width="64" height="63" viewBox="0 0 64 63" fill="none">
  <path d="M43.5395 56.9412C43.5395 57.4597 43.3335 57.9571 42.9669 58.3237C42.6002 58.6904 42.1029 58.8964 41.5843 58.8964H22.0319C21.5134 58.8964 21.0161 58.6904 20.6494 58.3237C20.2827 57.9571 20.0767 57.4597 20.0767 56.9412C20.0767 56.4226 20.2827 55.9253 20.6494 55.5586C21.0161 55.1919 21.5134 54.9859 22.0319 54.9859H41.5843C42.1029 54.9859 42.6002 55.1919 42.9669 55.5586C43.3335 55.9253 43.5395 56.4226 43.5395 56.9412ZM53.3157 25.6574C53.3242 28.9169 52.5878 32.1352 51.1629 35.0668C49.738 37.9983 47.6622 40.5656 45.094 42.5726C44.6137 42.9407 44.224 43.4137 43.9546 43.9555C43.6852 44.4973 43.5432 45.0935 43.5395 45.6986V47.165C43.5395 48.2021 43.1275 49.1968 42.3942 49.9301C41.6608 50.6635 40.6662 51.0755 39.6291 51.0755H23.9872C22.9501 51.0755 21.9554 50.6635 21.2221 49.9301C20.4887 49.1968 20.0767 48.2021 20.0767 47.165V45.6986C20.0763 45.1007 19.9388 44.511 19.6749 43.9746C19.4109 43.4382 19.0275 42.9695 18.5541 42.6044C15.9922 40.6092 13.9178 38.0574 12.4879 35.142C11.058 32.2267 10.31 29.0243 10.3005 25.7772C10.237 14.1288 19.6514 4.42842 31.29 4.1498C34.1577 4.08069 37.0103 4.58595 39.6798 5.63582C42.3493 6.6857 44.7819 8.25898 46.8342 10.2631C48.8866 12.2672 50.5173 14.6616 51.6304 17.3053C52.7436 19.9491 53.3166 22.7888 53.3157 25.6574ZM41.0124 26.2293C40.8308 26.0475 40.6152 25.9033 40.3778 25.8049C40.1404 25.7065 39.886 25.6559 39.6291 25.6559C39.3721 25.6559 39.1177 25.7065 38.8803 25.8049C38.643 25.9033 38.4273 26.0475 38.2457 26.2293L31.8081 32.6694L25.3705 26.2293C25.0036 25.8624 24.506 25.6563 23.9872 25.6563C23.4683 25.6563 22.9707 25.8624 22.6038 26.2293C22.237 26.5962 22.0309 27.0938 22.0309 27.6126C22.0309 28.1315 22.237 28.6291 22.6038 28.996L29.8529 36.2426V45.2098C29.8529 45.7283 30.0589 46.2257 30.4256 46.5923C30.7922 46.959 31.2896 47.165 31.8081 47.165C32.3267 47.165 32.824 46.959 33.1907 46.5923C33.5574 46.2257 33.7634 45.7283 33.7634 45.2098V36.2426L41.0124 28.996C41.1942 28.8144 41.3384 28.5987 41.4368 28.3614C41.5352 28.124 41.5858 27.8696 41.5858 27.6126C41.5858 27.3557 41.5352 27.1013 41.4368 26.8639C41.3384 26.6265 41.1942 26.4109 41.0124 26.2293Z" fill="#CCE3FF"/>
</svg>